HIERARCHY
ROOT Hips
{
  OFFSET 5.84602e-005 68.8428 3.50346
  CHANNELS 6 Xposition Yposition Zposition Zrotation Xrotation Yrotation
  JOINT Spine
  {
    OFFSET 0 8.597 -4.6522
    CHANNELS 3 Zrotation Xrotation Yrotation
    JOINT Spine1
    {
      OFFSET 0 7.8454 0.4098
      CHANNELS 3 Zrotation Xrotation Yrotation
      JOINT Spine2
      {
        OFFSET 0 9.7078 -2.1609
        CHANNELS 3 Zrotation Xrotation Yrotation
        JOINT Neck
        {
          OFFSET 0 21.8761 -0.4549
          CHANNELS 3 Zrotation Xrotation Yrotation
          JOINT Head
          {
            OFFSET 0 12.3537 3.3602
            CHANNELS 3 Zrotation Xrotation Yrotation
            End Site
            {
              OFFSET 0.0001 18.9506 0.5657
            }
          }
        }
        JOINT LeftShoulder
        {
          OFFSET 2.2086 21.1115 7.2329
          CHANNELS 3 Zrotation Xrotation Yrotation
          JOINT LeftArm
          {
            OFFSET 13.1193 3.0282 -4.8998
            CHANNELS 3 Zrotation Xrotation Yrotation
            JOINT LeftForeArm
            {
              OFFSET 27.4081 -0.0973053 -0.2375
              CHANNELS 3 Zrotation Xrotation Yrotation
              JOINT LeftHand
              {
                OFFSET 22.8641 0.0662994 -0.1369
                CHANNELS 3 Zrotation Xrotation Yrotation
                JOINT LeftHandIndex1
                {
                  OFFSET 8.8614 0.775009 2.4612
                  CHANNELS 3 Zrotation Xrotation Yrotation
                  JOINT LeftHandIndex2
                  {
                    OFFSET 3.3146 -0.808304 0.5841
                    CHANNELS 3 Zrotation Xrotation Yrotation
                    JOINT LeftHandIndex3
                    {
                      OFFSET 2.2628 -0.552002 0.3989
                      CHANNELS 3 Zrotation Xrotation Yrotation
                      End Site
                      {
                        OFFSET 1.6102 -0.4807 0.2612
                      }
                    }
                  }
                }
                JOINT LeftHandMiddle1
                {
                  OFFSET 8.9937 0.895004 0.2143
                  CHANNELS 3 Zrotation Xrotation Yrotation
                  JOINT LeftHandMiddle2
                  {
                    OFFSET 4.0984 0.0113983 -0.0242
                    CHANNELS 3 Zrotation Xrotation Yrotation
                    JOINT LeftHandMiddle3
                    {
                      OFFSET 2.2716 0.00689697 -0.0138001
                      CHANNELS 3 Zrotation Xrotation Yrotation
                      End Site
                      {
                        OFFSET 2.0404 -0.1441 0.0027
                      }
                    }
                  }
                }
                JOINT LeftHandRing1
                {
                  OFFSET 8.5234 0.597198 -2.0164
                  CHANNELS 3 Zrotation Xrotation Yrotation
                  JOINT LeftHandRing2
                  {
                    OFFSET 3.7188 -0.188293 -0.2328
                    CHANNELS 3 Zrotation Xrotation Yrotation
                    JOINT LeftHandRing3
                    {
                      OFFSET 2.1191 -0.106598 -0.1332
                      CHANNELS 3 Zrotation Xrotation Yrotation
                      End Site
                      {
                        OFFSET 1.8737 -0.2304 -0.0886
                      }
                    }
                  }
                }
                JOINT LeftHandPinky1
                {
                  OFFSET 7.9094 -0.601089 -3.4825
                  CHANNELS 3 Zrotation Xrotation Yrotation
                  JOINT LeftHandPinky2
                  {
                    OFFSET 2.2874 -0.477005 -0.6314
                    CHANNELS 3 Zrotation Xrotation Yrotation
                    JOINT LeftHandPinky3
                    {
                      OFFSET 1.6774 -0.349396 -0.4633
                      CHANNELS 3 Zrotation Xrotation Yrotation
                      End Site
                      {
                        OFFSET 1.4888 -0.4091 -0.3416
                      }
                    }
                  }
                }
                JOINT LeftHandThumb1
                {
                  OFFSET 1.833 -1.3875 1.3896
                  CHANNELS 3 Zrotation Xrotation Yrotation
                  JOINT LeftHandThumb2
                  {
                    OFFSET 3.4129 -1.121 2.5732
                    CHANNELS 3 Zrotation Xrotation Yrotation
                    JOINT LeftHandThumb3
                    {
                      OFFSET 2.2474 -0.804199 1.6192
                      CHANNELS 3 Zrotation Xrotation Yrotation
                      End Site
                      {
                        OFFSET 1.6527 -0.5689 1.1317
                      }
                    }
                  }
                }
              }
            }
          }
        }
        JOINT RightShoulder
        {
          OFFSET -2.2086 21.1115 7.2329
          CHANNELS 3 Zrotation Xrotation Yrotation
          JOINT RightArm
          {
            OFFSET -13.1216 3.0287 -4.9007
            CHANNELS 3 Zrotation Xrotation Yrotation
            JOINT RightForeArm
            {
              OFFSET -27.4081 -0.0973053 -0.2375
              CHANNELS 3 Zrotation Xrotation Yrotation
              JOINT RightHand
              {
                OFFSET -22.8641 0.0664063 -0.1369
                CHANNELS 3 Zrotation Xrotation Yrotation
                JOINT RightHandIndex1
                {
                  OFFSET -8.8614 0.774994 2.4612
                  CHANNELS 3 Zrotation Xrotation Yrotation
                  JOINT RightHandIndex2
                  {
                    OFFSET -3.3146 -0.808304 0.5841
                    CHANNELS 3 Zrotation Xrotation Yrotation
                    JOINT RightHandIndex3
                    {
                      OFFSET -2.2628 -0.552002 0.3989
                      CHANNELS 3 Zrotation Xrotation Yrotation
                      End Site
                      {
                        OFFSET -1.6102 -0.4807 0.2612
                      }
                    }
                  }
                }
                JOINT RightHandMiddle1
                {
                  OFFSET -8.9937 0.894989 0.2143
                  CHANNELS 3 Zrotation Xrotation Yrotation
                  JOINT RightHandMiddle2
                  {
                    OFFSET -4.0984 0.0113983 -0.0242
                    CHANNELS 3 Zrotation Xrotation Yrotation
                    JOINT RightHandMiddle3
                    {
                      OFFSET -2.2716 0.00691223 -0.0138001
                      CHANNELS 3 Zrotation Xrotation Yrotation
                      End Site
                      {
                        OFFSET -2.0404 -0.1441 0.0027
                      }
                    }
                  }
                }
                JOINT RightHandRing1
                {
                  OFFSET -8.5234 0.597198 -2.0164
                  CHANNELS 3 Zrotation Xrotation Yrotation
                  JOINT RightHandRing2
                  {
                    OFFSET -3.7188 -0.188309 -0.2328
                    CHANNELS 3 Zrotation Xrotation Yrotation
                    JOINT RightHandRing3
                    {
                      OFFSET -2.1191 -0.106598 -0.1332
                      CHANNELS 3 Zrotation Xrotation Yrotation
                      End Site
                      {
                        OFFSET -1.8737 -0.2304 -0.0886
                      }
                    }
                  }
                }
                JOINT RightHandPinky1
                {
                  OFFSET -7.9094 -0.601105 -3.4825
                  CHANNELS 3 Zrotation Xrotation Yrotation
                  JOINT RightHandPinky2
                  {
                    OFFSET -2.2874 -0.477005 -0.6314
                    CHANNELS 3 Zrotation Xrotation Yrotation
                    JOINT RightHandPinky3
                    {
                      OFFSET -1.6774 -0.349396 -0.4633
                      CHANNELS 3 Zrotation Xrotation Yrotation
                      End Site
                      {
                        OFFSET -1.4888 -0.4091 -0.3416
                      }
                    }
                  }
                }
                JOINT RightHandThumb1
                {
                  OFFSET -1.833 -1.38751 1.3896
                  CHANNELS 3 Zrotation Xrotation Yrotation
                  JOINT RightHandThumb2
                  {
                    OFFSET -3.41299 -1.12099 2.5732
                    CHANNELS 3 Zrotation Xrotation Yrotation
                    JOINT RightHandThumb3
                    {
                      OFFSET -2.24741 -0.804108 1.6192
                      CHANNELS 3 Zrotation Xrotation Yrotation
                      End Site
                      {
                        OFFSET -1.6527 -0.5689 1.1317
                      }
                    }
                  }
                }
              }
            }
          }
        }
      }
    }
  }
  JOINT RightUpLeg
  {
    OFFSET -9.1966 3.8861 -0.7581
    CHANNELS 3 Zrotation Xrotation Yrotation
    JOINT RightLeg
    {
      OFFSET -0.7359 -41.0265 0
      CHANNELS 3 Zrotation Xrotation Yrotation
      JOINT RightFoot
      {
        OFFSET 0 -40.2855 0
        CHANNELS 3 Zrotation Xrotation Yrotation
        JOINT RightToeBase
        {
          OFFSET 0 -5.6122 11.7359
          CHANNELS 3 Zrotation Xrotation Yrotation
          End Site
          {
            OFFSET 0 0 7.8731
          }
        }
      }
    }
  }
  JOINT LeftUpLeg
  {
    OFFSET 9.1965 3.8864 -0.7581
    CHANNELS 3 Zrotation Xrotation Yrotation
    JOINT LeftLeg
    {
      OFFSET 0.7359 -41.0268 0
      CHANNELS 3 Zrotation Xrotation Yrotation
      JOINT LeftFoot
      {
        OFFSET 0 -40.2855 0
        CHANNELS 3 Zrotation Xrotation Yrotation
        JOINT LeftToeBase
        {
          OFFSET 0 -5.6122 11.7359
          CHANNELS 3 Zrotation Xrotation Yrotation
          End Site
          {
            OFFSET 0 0 7.8731
          }
        }
      }
    }
  }
}
MOTION
Frames:	6
Frame Time:	0.0333333
5.84602e-005 68.8428 3.50346 0 0 -0 0 0 -0 0 0 -0 0 0 -0 0 0 -0 0 0 -0 0 0 -0 0 0 -0 0 0 -0 0 0 -0 0 0 -0 0 0 -0 0 0 -0 0 0 -0 -0.0146107 -8.87603e-005 -2.63497e-007 2.99804e-018 -2.42657e-020 -1.42182e-022 0 0 -0 -0.0187562 -0.001176 5.858e-005 5.06224e-018 3.88251e-019 1.21329e-020 0 0 -0 -0.012269 -0.00324817 0.000675346 -1.74678e-018 3.88251e-019 -0 0 0 -0 0 0 -0 0 0 -0 0 0 -0 0 0 -0 0 0 -0 0 0 -0 0 0 -0 0 0 -0 0 0 -0 0 0 -0 0.0149955 -9.10982e-005 2.64101e-007 -9.69331e-018 1.21329e-020 -4.7394e-023 0 0 -0 0.0189956 -0.00119102 -5.96516e-005 -5.41541e-019 0 2.42657e-020 0 0 -0 0.0122698 -0.00324857 -0.000673756 -2.00796e-019 0 -1.94126e-019 0 0 -0 0 0 -0 0 0 -0 3.39842 1.33031 -0.0637918 -5.65207e-008 0.834868 -0.000436188 -3.39935 -2.16518 -0.0642563 -8.89002e-024 -1.18485e-023 -1.48106e-024 -3.39844 1.35642 0.0640283 -3.18788e-007 0.782166 -0.000588827 3.39931 -2.13858 0.0634662 1.1399e-023 0 -0 
0.00116966 -40.6409 24.4869 -0 -22.965 -0 -0.258267 13.0908 -0.0331631 -0.530214 26.1817 -0.00397321 -0.530214 26.1817 -0.00397309 -16.2134 -24.5375 26.4015 7.87174 -10.9757 15.6475 -6.25917 -7.09354 -3.57207 -54.1286 -24.069 -64.9769 -9.41386 65.5003 -35.0214 -51.7388 -4.46518 -22.7908 4.77083e-015 0 1.05356e-014 3.18055e-015 0 1.63003e-014 6.36111e-015 0 1.23246e-014 4.77083e-015 0 1.05356e-014 -0.014637 -9.2459e-005 -3.71583e-006 -1.59028e-015 -2.78299e-015 1.13307e-014 4.77083e-015 0 1.05356e-014 -0.0187986 -0.00118024 5.76117e-005 3.18055e-015 -3.97569e-016 5.76476e-015 4.77083e-015 0 1.05356e-014 -0.0123256 -0.00325997 0.000680008 3.18055e-015 -7.95139e-016 1.10325e-014 4.77083e-015 0 1.05356e-014 3.18055e-015 0 1.63003e-014 6.36111e-015 0 1.23246e-014 6.26746 -7.07448 3.76779 54.0854 -24.1387 64.939 9.37171 65.4439 35.0145 51.7205 -4.42795 22.7776 3.18055e-015 -3.97569e-016 3.97569e-015 2.84404e-006 -2.71842e-006 5.45084e-007 -9.53112e-007 -1.22006e-006 2.04891e-006 3.18055e-015 -3.97569e-016 3.97569e-015 0.0149986 -9.27648e-005 1.30619e-006 -1.59028e-015 -1.31198e-014 -3.77691e-015 3.18055e-015 -3.97569e-016 3.97569e-015 0.0190008 -0.00118637 -6.05625e-005 1.59028e-015 0 2.68359e-015 3.18055e-015 -3.97569e-016 3.97569e-015 0.012212 -0.00323707 -0.000678228 1.59028e-015 -3.97569e-016 -4.07509e-015 3.18055e-015 -3.97569e-016 3.97569e-015 2.84404e-006 -2.71842e-006 5.45084e-007 -9.53112e-007 -1.22006e-006 2.04891e-006 -16.1206 -79.1059 -10.186 -176.385 63.5027 174.708 8.61035 -11.7529 16.7232 -3.14861e-007 5.12428e-009 -3.23626e-007 17.4742 -80.2517 11.6782 176.42 63.4615 -174.722 -8.52214 -10.8197 -16.4651 2.11007e-007 -1.04233e-007 8.51786e-007 
0.00268507 -89.92 33.7318 -0 -33.2993 -0 -0.348486 18.9818 -0.0930591 -0.728074 37.9638 -0.060901 -0.728073 37.9638 -0.0609009 -15.6022 -31.2005 41.4646 13.4291 -15.4801 23.1012 -9.29336 -10.2909 -5.33602 -86.08 -8.4521 -86.4944 58.4401 67.397 -117.34 -76.1355 -5.88729 -33.1378 3.18055e-015 -4.77083e-015 -7.95139e-016 2.48639e-006 -1.45505e-007 -2.2973e-006 5.3516e-007 -2.95535e-007 5.9029e-007 3.18055e-015 -4.77083e-015 -7.95139e-016 -0.0145652 -8.76596e-005 -2.39709e-006 5.3515e-007 -2.9561e-007 5.90252e-007 3.18055e-015 -4.77083e-015 -7.95139e-016 -0.0187746 -0.00117887 5.38677e-005 5.35153e-007 -2.95633e-007 5.90236e-007 3.18055e-015 -4.77083e-015 -7.95139e-016 -0.0122261 -0.00323913 0.000670527 5.35166e-007 -2.95603e-007 5.90244e-007 3.18055e-015 -4.77083e-015 -7.95139e-016 2.48639e-006 -1.45505e-007 -2.2973e-006 5.3516e-007 -2.95535e-007 5.9029e-007 9.31958 -10.2619 5.62816 86.0471 -8.55355 86.4644 -58.3107 67.3952 117.132 76.099 -5.83891 33.1172 -5.38494e-007 -3.10136e-007 -5.81905e-007 -5.38494e-007 -3.10136e-007 -5.81905e-007 -5.38494e-007 -3.10136e-007 -5.81905e-007 -5.38494e-007 -3.10136e-007 -5.81905e-007 0.0150109 -8.64951e-005 3.46968e-007 -5.38486e-007 -3.10213e-007 -5.81864e-007 -5.38494e-007 -3.10136e-007 -5.81905e-007 0.0189856 -0.00119266 -6.14937e-005 -5.38489e-007 -3.10234e-007 -5.81848e-007 -5.38494e-007 -3.10136e-007 -5.81905e-007 0.0122222 -0.00323954 -0.000672941 -4.06701e-007 -1.55102e-008 -9.75231e-007 -5.38494e-007 -3.10136e-007 -5.81905e-007 -5.38494e-007 -3.10136e-007 -5.81905e-007 -5.38494e-007 -3.10136e-007 -5.81905e-007 161.296 -67.5996 150.272 -177.582 12.9735 159.78 14.7109 -20.377 15.8231 4.28891e-007 2.61915e-008 -3.21301e-009 -161.82 -66.0947 -150.692 177.607 12.923 -159.772 -14.6059 -19.2674 -15.3977 8.71236e-016 -1.2424e-017 -0 
0.00248482 -78.9326 31.6913 -0 -31.0028 -0 -0.331 17.6727 -0.0769199 -0.689018 35.3455 -0.043579 -0.689018 35.3455 -0.0435794 -16.1253 -29.7836 37.526 12.1436 -15.0539 21.3568 -8.43137 -9.64385 -5.18921 -79.582 -13.288 -83.1541 45.3693 71.029 -101.352 -70.6628 -5.61874 -30.8331 -4.56666e-007 2.88846e-007 1.6603e-008 -6.47096e-007 3.32129e-007 -1.16011e-006 3.71156e-007 -1.76885e-007 8.7423e-007 -4.56666e-007 2.88846e-007 1.6603e-008 -0.0146337 -9.40783e-005 -4.14034e-006 3.69844e-007 -1.77005e-007 8.74207e-007 -4.56666e-007 2.88846e-007 1.6603e-008 -0.0187286 -0.00117457 5.44362e-005 2.75941e-007 -1.55291e-007 2.85847e-007 -4.56666e-007 2.88846e-007 1.6603e-008 -0.0124008 -0.00328369 0.000678261 2.75946e-007 -1.55277e-007 2.85851e-007 -4.56666e-007 2.88846e-007 1.6603e-008 -6.47096e-007 3.32129e-007 -1.16011e-006 3.71156e-007 -1.76885e-007 8.7423e-007 8.45044 -9.61947 5.47349 79.5456 -13.383 83.1202 -45.2225 71.0054 101.134 70.6307 -5.57239 30.8143 -1.38356e-007 -8.10515e-008 -1.40823e-007 -4.15069e-007 -2.43154e-007 -4.22468e-007 -1.38356e-007 -8.10515e-008 -1.40823e-007 -1.38356e-007 -8.10515e-008 -1.40823e-007 0.0149113 -9.34661e-005 5.87022e-007 -1.38356e-007 -8.10698e-008 -1.40812e-007 -1.38356e-007 -8.10515e-008 -1.40823e-007 0.0189715 -0.00119259 -5.64334e-005 -1.38357e-007 -8.10749e-008 -1.40808e-007 -1.38356e-007 -8.10515e-008 -1.40823e-007 0.01234 -0.00326725 -0.000680133 -2.06311e-006 4.16409e-008 1.67708e-006 -1.38356e-007 -8.10515e-008 -1.40823e-007 -4.15069e-007 -2.43154e-007 -4.22468e-007 -1.38356e-007 -8.10515e-008 -1.40823e-007 167.844 -74.2978 168.946 -177.302 24.0905 168.599 13.3777 -16.6267 19.2736 -6.08778e-016 9.93923e-017 -0 -167.596 -72.7524 -168.621 177.324 24.04 -168.594 -13.3445 -15.465 -18.8017 5.96354e-016 -9.93923e-017 -0 
0.00279855 -78.9327 31.6912 -0 -31.0028 -0 -0.331 17.6726 -0.0769197 -0.689018 35.3455 -0.043579 -0.689018 35.3455 -0.0435793 -16.1278 -29.54 37.1958 12.1918 -15.4776 21.3136 -8.29208 -9.69466 -5.39293 -79.5635 -13.4681 -83.1218 45.3692 71.029 -101.352 -70.6628 -5.61873 -30.8331 1.32417e-031 3.18055e-015 -2.38542e-015 1.65372e-006 -9.3454e-007 1.71541e-006 -5.51241e-007 3.11513e-007 -5.71802e-007 1.32417e-031 3.18055e-015 -2.38542e-015 -0.0146491 -8.90154e-005 -4.34493e-006 -5.51238e-007 3.11586e-007 -5.71762e-007 1.32417e-031 3.18055e-015 -2.38542e-015 -0.0186961 -0.00117036 6.04261e-005 -5.51242e-007 3.11607e-007 -5.71745e-007 1.32417e-031 3.18055e-015 -2.38542e-015 -0.0123255 -0.00326377 0.000677561 -5.51252e-007 3.11579e-007 -5.71753e-007 1.32417e-031 3.18055e-015 -2.38542e-015 1.65372e-006 -9.3454e-007 1.71541e-006 -5.51241e-007 3.11513e-007 -5.71802e-007 8.30931 -9.67216 5.68847 79.5258 -13.5635 83.0857 -45.2225 71.0054 101.134 70.6307 -5.57238 30.8142 -1.3819e-007 -8.13126e-008 -1.40833e-007 -4.14571e-007 -2.43938e-007 -4.225e-007 1.3819e-007 8.13126e-008 1.40833e-007 -1.3819e-007 -8.13126e-008 -1.40833e-007 0.0150911 -9.58249e-005 -1.03631e-007 1.3819e-007 8.13312e-008 1.40823e-007 -1.3819e-007 -8.13126e-008 -1.40833e-007 0.0189794 -0.00118907 -6.01934e-005 1.38191e-007 8.1336e-008 1.40819e-007 -1.3819e-007 -8.13126e-008 -1.40833e-007 0.0123484 -0.00327003 -0.000683389 1.38193e-007 8.13287e-008 1.40821e-007 -1.3819e-007 -8.13126e-008 -1.40833e-007 -4.14571e-007 -2.43938e-007 -4.225e-007 1.3819e-007 8.13126e-008 1.40833e-007 167.841 -74.3042 168.944 -177.302 24.0973 168.599 13.378 -16.6262 19.2739 -4.22417e-016 -9.93923e-017 -1.59028e-015 -167.147 -72.7271 -168.188 177.324 24.0426 -168.59 -13.4476 -15.4518 -18.7414 4.22115e-007 2.25501e-008 8.52907e-007 
0.00311234 -78.9328 31.6912 -0 -31.0028 -0 -0.331 17.6726 -0.0769198 -0.689018 35.3455 -0.0435789 -0.689018 35.3455 -0.0435792 -16.1287 -29.2962 36.8663 12.2397 -15.9018 21.2707 -8.15294 -9.74599 -5.59658 -79.5448 -13.6482 -83.0894 45.3693 71.029 -101.352 -70.6628 -5.61874 -30.8331 2.75299e-007 -1.56269e-007 2.85927e-007 -2.75299e-007 1.56269e-007 -2.85927e-007 2.75299e-007 -1.56269e-007 2.85927e-007 2.75299e-007 -1.56269e-007 2.85927e-007 -0.0145271 -8.8423e-005 -4.84456e-007 2.75298e-007 -1.56305e-007 2.85907e-007 2.75299e-007 -1.56269e-007 2.85927e-007 -0.0187036 -0.00117547 6.02014e-005 7.38832e-008 -1.16262e-008 6.07607e-007 2.75299e-007 -1.56269e-007 2.85927e-007 -0.0122406 -0.00324071 0.000675402 7.44729e-008 -1.17773e-008 6.07662e-007 2.75299e-007 -1.56269e-007 2.85927e-007 -2.75299e-007 1.56269e-007 -2.85927e-007 2.75299e-007 -1.56269e-007 2.85927e-007 8.16835 -9.72541 5.90338 79.5059 -13.7441 83.0511 -45.2225 71.0054 101.134 70.6307 -5.57238 30.8142 -4.14071e-007 -2.4472e-007 -4.22534e-007 -8.28141e-007 -4.8944e-007 -8.45067e-007 -4.14071e-007 -2.4472e-007 -4.22534e-007 -4.14071e-007 -2.4472e-007 -4.22534e-007 0.0149694 -9.67863e-005 3.57311e-006 -4.14069e-007 -2.44775e-007 -4.22501e-007 -4.14071e-007 -2.4472e-007 -4.22534e-007 0.0190251 -0.00118945 -5.99961e-005 -4.14073e-007 -2.44791e-007 -4.22489e-007 -4.14071e-007 -2.4472e-007 -4.22534e-007 0.0122562 -0.00324624 -0.000679039 -4.1408e-007 -2.44768e-007 -4.22496e-007 -4.14071e-007 -2.4472e-007 -4.22534e-007 -8.28141e-007 -4.8944e-007 -8.45067e-007 -4.14071e-007 -2.4472e-007 -4.22534e-007 167.844 -74.3003 168.948 -177.302 24.0938 168.6 13.3783 -16.6257 19.2743 1.73937e-015 9.93923e-017 -3.18055e-015 -166.701 -72.6975 -167.759 177.324 24.0419 -168.586 -13.5507 -15.4386 -18.681 4.27634e-007 -5.72347e-008 8.49768e-007 
